<svg id="Слой_1" xmlns="http://www.w3.org/2000/svg" viewBox="0 0 40 35"><style>.st0{fill-rule:evenodd;clip-rule:evenodd;fill:#fcda5b}.st1{fill:#010202}</style><path class="st0" d="M4 8.5h36l-4 18H0l4-18z"/><path class="st1" d="M34 16.674c0-2.49-3.602-4.454-8.162-4.454-1.276 0-2.416.13-3.467.437V4.454c0-2.49-3.602-4.454-8.162-4.454C9.602 0 6 1.964 6 4.453v18.63c0 2.49 3.602 4.453 8.162 4.453 1.233 0 2.416-.13 3.467-.392v3.403c0 2.489 3.602 4.453 8.162 4.453s8.162-1.964 8.162-4.453V16.673H34zM8.145 7.508a.348.348 0 0 0 .182.09c.181.129.41.217.637.306.228.09.456.174.684.263.093.045.182.045.228.089.182.045.321.089.503.174.093.044.181.044.32.089.182.044.322.089.503.129.093.045.228.045.321.045.182.044.363.044.55.088.092 0 .227.045.32.045.182.044.41.044.591.044a.59.59 0 0 1 .275.045c.32 0 .59.044.912.044.32 0 .637 0 .912-.044.093 0 .181 0 .274-.045.182 0 .41-.044.591-.044.093 0 .229-.045.321-.045.182-.044.363-.044.55-.088.092 0 .227-.045.32-.045.182-.044.321-.089.503-.13.093-.044.181-.044.32-.088.182-.045.322-.09.503-.174.093-.044.182-.044.228-.089.228-.089.456-.174.684-.263.228-.089.41-.218.638-.307a.346.346 0 0 1 .181-.089c.135-.089.275-.173.41-.262 0 0 .046-.045.093-.045v1.702c0 1.353-2.644 2.836-6.478 2.836s-6.477-1.483-6.477-2.836V7.2s.046.045.093.045c.034.089.169.178.308.262zm13.91 13.094c.092.044.18.044.32.089.182.044.321.088.503.129.093.044.228.044.32.044.182.045.364.045.55.09.092 0 .228.044.32.044.182.044.41.044.592.044.093 0 .181 0 .274.045.321 0 .591.044.912.044.321 0 .638 0 .912-.044.093 0 .182 0 .275-.045.181 0 .41-.044.59-.044.094 0 .229-.045.322-.045.181-.044.363-.044.549-.089.093 0 .228-.044.32-.044.182-.045.322-.09.503-.13.093-.044.182-.044.321-.088.182-.045.321-.09.503-.174.092-.045.181-.045.228-.09.228-.088.456-.173.684-.262.228-.089.41-.218.637-.307a.346.346 0 0 1 .182-.089c.135-.089.274-.174.41-.263 0 0 .046-.044.092-.044v1.701c0 1.354-2.643 2.837-6.477 2.837-1.643 0-3.1-.262-4.197-.699 0 0-.047 0-.047-.044-1.233-.481-2.052-1.18-2.233-1.835v-2.009c.092.045.135.09.227.174h.047c.046 0 .046.045.093.045.093.044.135.089.228.13.093.044.135.088.228.128h.046c.047 0 .047.045.093.045.182.089.363.174.591.263.047 0 .093.044.135.044.093.045.228.089.322.13.092.044.135.044.227.088.03.146.211.19.397.23zm-4.38.133c-1.047.307-2.233.48-3.466.48-3.83 0-6.478-1.482-6.478-2.836v-1.701c1.504 1.046 3.83 1.7 6.478 1.7 1.233 0 2.415-.128 3.467-.391v2.748zm14.64 5.104c0 1.354-2.643 2.837-6.477 2.837-3.695 0-6.338-1.398-6.478-2.708v-1.835c.363.263.777.481 1.233.7.093.044.135.088.228.088.047 0 .093.045.135.045 1.368.525 3.011.873 4.882.873 2.69 0 5.016-.655 6.477-1.701v1.7zM18.267 14.928c-.093.089-.135.218-.228.307-.047.045-.047.089-.093.174-.047.089-.093.174-.093.218-.047.089-.047.174-.093.218 0 .045-.047.045-.047.09-1.047.347-2.28.524-3.555.524-3.83 0-6.477-1.483-6.477-2.836V11.92c1.503 1.047 3.83 1.702 6.477 1.702 2.648 0 5.016-.655 6.478-1.702v1.22c-1.048.437-1.871 1.047-2.374 1.702.051.085.005.085.005.085zm14.048 1.746c0 1.353-2.643 2.836-6.477 2.836-1.778 0-3.286-.307-4.38-.784-.134-.044-.274-.129-.409-.173 0 0-.046 0-.046-.045h-.047l-.181-.089c-.093-.089-.135-.129-.182-.129 0 0-.046 0-.046-.044H20.5c-.093-.045-.181-.13-.274-.219h-.047l-.135-.129c-.046-.044-.093-.089-.135-.089l-.135-.13c-.046-.044-.093-.088-.093-.128-.046-.045-.046-.09-.093-.13-.046-.044-.046-.089-.093-.13a.945.945 0 0 1-.135-.48v-.089c0-.089 0-.174.046-.307.229-.7 1.094-1.354 2.416-1.835h.046c1.094-.392 2.416-.654 4.012-.654 3.788-.09 6.435 1.398 6.435 2.748zM14.162 1.617c3.83 0 6.478 1.482 6.478 2.836S17.996 7.29 14.162 7.29 7.685 5.807 7.685 4.453c.004-1.309 2.647-2.837 6.477-2.837zM7.69 23.09v-1.7c1.503 1.046 3.83 1.7 6.478 1.7 1.232 0 2.415-.128 3.466-.391v2.792a12.437 12.437 0 0 1-3.466.481c-3.835-.044-6.478-1.527-6.478-2.881zm24.626 7.464c0 1.354-2.643 2.837-6.477 2.837s-6.478-1.483-6.478-2.837v-1.701c1.503 1.046 3.83 1.7 6.478 1.7s5.016-.654 6.477-1.7v1.7z"/></svg>