<svg id="Группа_1" data-name="Группа 1" xmlns="http://www.w3.org/2000/svg" width="38" height="25" viewBox="0 0 38 25">
  <metadata><?xpacket begin="﻿" id="W5M0MpCehiHzreSzNTczkc9d"?>
<x:xmpmeta xmlns:x="adobe:ns:meta/" x:xmptk="Adobe XMP Core 5.6-c138 79.159824, 2016/09/14-01:09:01        ">
   <rdf:RDF xmlns:rdf="http://www.w3.org/1999/02/22-rdf-syntax-ns#">
      <rdf:Description rdf:about=""/>
   </rdf:RDF>
</x:xmpmeta>
                                                                                                    
                                                                                                    
                                                                                                    
                                                                                                    
                                                                                                    
                                                                                                    
                                                                                                    
                                                                                                    
                                                                                                    
                                                                                                    
                                                                                                    
                                                                                                    
                                                                                                    
                                                                                                    
                                                                                                    
                                                                                                    
                                                                                                    
                                                                                                    
                                                                                                    
                                                                                                    
                           
<?xpacket end="w"?></metadata>
<defs>
    <style>
      .cls-1 {
        fill: #fcda5b;
      }

      .cls-1, .cls-2 {
        fill-rule: evenodd;
      }
    </style>
  </defs>
  <path class="cls-1" d="M376,475h34l-4,17H372Z" transform="translate(-372 -472)"/>
  <path id="Shape_154_copy_10" data-name="Shape 154 copy 10" class="cls-2" d="M385.64,497.006a0.594,0.594,0,0,1-.322-0.094,0.565,0.565,0,0,1-.247-0.616l1.041-4.114H382.07a0.582,0.582,0,0,1-.574-0.456L378,475.332a0.561,0.561,0,0,1,.1-0.455,0.591,0.591,0,0,1,.413-0.232L404.35,472a0.583,0.583,0,0,1,.481.17,0.565,0.565,0,0,1,.162.476l-2.3,16.744a0.582,0.582,0,0,1-.581.5H395.37l-9.374,7A0.593,0.593,0,0,1,385.64,497.006Zm-3.093-5.97h4.314a0.59,0.59,0,0,1,.462.22,0.565,0.565,0,0,1,.108.491l-0.821,3.241,8.2-6.127a0.6,0.6,0,0,1,.357-0.117H401.6l2.131-15.526-24.449,2.5Z" transform="translate(-372 -472)"/>
</svg>
