<svg id="Группа_2" data-name="Группа 2" xmlns="http://www.w3.org/2000/svg" width="38" height="17" viewBox="0 0 38 17">
  <metadata><?xpacket begin="﻿" id="W5M0MpCehiHzreSzNTczkc9d"?>
<x:xmpmeta xmlns:x="adobe:ns:meta/" x:xmptk="Adobe XMP Core 5.6-c138 79.159824, 2016/09/14-01:09:01        ">
   <rdf:RDF xmlns:rdf="http://www.w3.org/1999/02/22-rdf-syntax-ns#">
      <rdf:Description rdf:about=""/>
   </rdf:RDF>
</x:xmpmeta>
                                                                                                    
                                                                                                    
                                                                                                    
                                                                                                    
                                                                                                    
                                                                                                    
                                                                                                    
                                                                                                    
                                                                                                    
                                                                                                    
                                                                                                    
                                                                                                    
                                                                                                    
                                                                                                    
                                                                                                    
                                                                                                    
                                                                                                    
                                                                                                    
                                                                                                    
                                                                                                    
                           
<?xpacket end="w"?></metadata>
<defs>
    <style>
      .cls-1 {
        fill: #fcda5b;
      }

      .cls-1, .cls-2 {
        fill-rule: evenodd;
      }
    </style>
  </defs>
  <path class="cls-1" d="M376,837h34l-4,17H372Z" transform="translate(-372 -837)"/>
  <path id="Shape_10_copy_5" data-name="Shape 10 copy 5" class="cls-2" d="M406,847.748c-0.246-2.05-.872-6.239-2.028-7.813a0.606,0.606,0,0,0-.376-0.235,7,7,0,0,0-1.334-.122,12.2,12.2,0,0,0-4.19.856c-0.007,0-.011-0.007-0.018-0.009a35.12,35.12,0,0,1-3.86-1.467,5.618,5.618,0,0,0-4.9.234c-1.346-.124-4-0.2-5.04-0.181A43.194,43.194,0,0,0,379.381,838h-0.833a0.578,0.578,0,0,0-.315.407A77.016,77.016,0,0,0,377,849.154a0.6,0.6,0,0,0,.466.582,7.993,7.993,0,0,0,1.7.134c1.218,0,2.5-.116,2.558-0.121a0.605,0.605,0,0,0,.519-0.4c0.022-.063.157-0.46,0.354-1.066l1.087,0.893c0.541,0.441,5.306,4.329,5.96,4.748,0.04,0.026.095,0.052,0.141,0.078h2.891c0.04-.034.083-0.064,0.12-0.1a2.594,2.594,0,0,0,.305.1h1.487c0.053-.016.109-0.023,0.161-0.043a1.943,1.943,0,0,0,.945-0.73,2.366,2.366,0,0,0,1.539-.2,2,2,0,0,0,1.007-1.036,1.885,1.885,0,0,0,1.188-.432,1.908,1.908,0,0,0,.611-2.046l0.6-.443a0.583,0.583,0,0,0,.245.193,8.1,8.1,0,0,0,2.67.293c1.054,0,2-.064,2-0.064a0.614,0.614,0,0,0,.42-0.208c0.01-.011.014-0.027,0.023-0.039v-1.5Zm-24.783.852a26.889,26.889,0,0,1-2.991.051,76.664,76.664,0,0,1,1.1-9.459c0.983,0.16,2.97.5,4.181,0.835A62.133,62.133,0,0,1,381.217,848.6Zm17.423,2.061a0.474,0.474,0,0,1-.542.094c-0.545-.429-3.069-2.717-4.009-3.576a0.62,0.62,0,0,0-.859.027,0.585,0.585,0,0,0,.028.839c0.129,0.117,2.876,2.623,3.864,3.456a0.781,0.781,0,0,1-.43.468,0.933,0.933,0,0,1-.92.012c-0.007-.007-0.016-0.01-0.023-0.016s-0.007-.01-0.012-0.014c-0.805-.627-3.073-2.627-3.355-2.926a0.618,0.618,0,0,0-.858-0.035,0.582,0.582,0,0,0-.037.837c0.31,0.329,2.171,1.97,3.162,2.784a0.772,0.772,0,0,1-.336.241,1.335,1.335,0,0,1-1.289-.208l-0.013-.009-0.005-.007a33.249,33.249,0,0,1-2.5-2.372,0.618,0.618,0,0,0-.859-0.03,0.583,0.583,0,0,0-.03.838c0.6,0.629,1.448,1.459,2.172,2.1a0.787,0.787,0,0,1-.254.072,2.036,2.036,0,0,1-1.22-.3c-0.4-.259-3.248-2.544-5.848-4.666l-1.477-1.213a50.434,50.434,0,0,0,1.721-6.86c0.783,0,1.992.033,3.052,0.085-0.83.795-1.815,2.581-1.509,3.867a1.583,1.583,0,0,0,1.093,1.174c1.792,0.577,2.989-.882,3.591-1.735a3.627,3.627,0,0,0,1.194-.295l0.019-.006c2.27,1.55,5.962,4.969,6.653,6.373A0.79,0.79,0,0,1,398.64,850.661Zm0.827-2.208a33.752,33.752,0,0,0-6.895-6.324,0.615,0.615,0,0,0-.542-0.064l-0.314.11a2.712,2.712,0,0,1-.959.235l-0.224.022a0.612,0.612,0,0,0-.444.26c-0.785,1.143-1.456,1.79-2.363,1.5a0.385,0.385,0,0,1-.289-0.318,3.86,3.86,0,0,1,1.176-2.753,4.723,4.723,0,0,1,5.085-1.082,35.555,35.555,0,0,0,4.015,1.522h0.012a51.407,51.407,0,0,1,2.5,6.329Zm4.087-.079a10.19,10.19,0,0,1-1.948-.132,60.025,60.025,0,0,0-2.621-6.877,10.613,10.613,0,0,1,3.277-.6,5.937,5.937,0,0,1,.851.058c0.9,1.506,1.5,5.471,1.733,7.524C404.5,848.36,404.038,848.374,403.554,848.374Z" transform="translate(-372 -837)"/>
</svg>
