<svg id="Capa_1" xmlns="http://www.w3.org/2000/svg" viewBox="-12 135.27899 570.61102 570.61102"><style>.st0{fill:#000;stroke:#000;stroke-miterlimit:10;opacity:.3}.st1{fill:#fff}</style><circle class="st0" cx="273.308" cy="420.584" r="285.303"/><path class="st1" d="M273.306 135.279c-157.321 0-285.302 127.988-285.302 285.302 0 157.315 127.981 285.309 285.302 285.309s285.301-127.988 285.301-285.303c0-157.314-127.98-285.308-285.301-285.308zm0 509.41c-123.569 0-224.102-100.533-224.102-224.102s100.533-224.108 224.102-224.108 224.102 100.533 224.102 224.102-100.533 224.108-224.102 224.108z"/><path class="st1" d="M172.232 286.95v267.27c0 21.562 15.183 30.377 33.906 19.69l234.815-133.978c18.73-10.687 18.73-28.013 0-38.694L206.138 267.252c-18.723-10.686-33.906-1.865-33.906 19.698z"/></svg>