<svg id="Слой_1" xmlns="http://www.w3.org/2000/svg" viewBox="0 0 30 33"><style>.st0{fill-rule:evenodd;clip-rule:evenodd;fill:#e5221c}.st1{fill:#010202}</style><path class="st0" d="M19.016.906l-3.787 3.969L10.497.906h8.519z"/><path class="st1" d="M30 17.218c0-3.53-1.274-6.952-3.588-9.634a15.05 15.05 0 0 0-7.963-4.814l1.775-1.757a.589.589 0 0 0 .13-.647A.6.6 0 0 0 19.8 0h-9.6a.6.6 0 0 0-.554.367.589.589 0 0 0 .13.647l1.775 1.756A15.054 15.054 0 0 0 3.59 7.582 14.755 14.755 0 0 0 0 17.218c0 6.525 4.276 12.08 10.2 14.065h9.6c5.924-1.985 10.2-7.54 10.2-14.065zM18.351 1.188L15 4.503l-3.352-3.317h6.703zm1.575 7.587a.602.602 0 0 0 .82-.217l.464-.796a11.435 11.435 0 0 1 3.346 3.311l-6.117 3.495a.591.591 0 0 0-.293.602.586.586 0 0 0 .051.41c.267.508.403 1.06.403 1.638 0 1.965-1.615 3.563-3.6 3.563s-3.6-1.598-3.6-3.563 1.615-3.562 3.6-3.562c.573 0 1.12.129 1.626.383a.602.602 0 0 0 .382.053.602.602 0 0 0 .67-.278l1.921-3.291a.59.59 0 0 0-.22-.811.604.604 0 0 0-.82.217l-1.697 2.911a4.757 4.757 0 0 0-1.262-.335V5.953c1.639.084 3.187.513 4.572 1.213l-.466.798a.59.59 0 0 0 .22.811zm2.874 9.037h3.584a11.112 11.112 0 0 1-1.226 4.524l-5.734-3.275c.167-.393.282-.812.337-1.25h.639c.331 0 .6-.265.6-.593a.597.597 0 0 0-.6-.594h-.638a4.734 4.734 0 0 0-.337-1.248l5.733-3.275a11.11 11.11 0 0 1 1.226 4.523H22.8c-.331 0-.6.266-.6.594 0 .328.269.594.6.594zm-1.59 8.862L17.9 21c.347-.261.658-.569.922-.913l5.734 3.276a11.434 11.434 0 0 1-3.346 3.311zm-11.382.596l3.31-5.674c.397.166.82.279 1.262.334v6.554a11.412 11.412 0 0 1-4.572-1.214zm-4.384-3.907l5.734-3.276c.264.344.575.652.923.913l-3.31 5.674a11.433 11.433 0 0 1-3.347-3.31zm3.346-15.6l3.31 5.673c-.347.262-.658.57-.922.913l-5.734-3.276c.87-1.32 2.012-2.45 3.346-3.31zm5.61 4.744a4.797 4.797 0 0 0-1.261.333l-3.31-5.674c1.384-.7 2.932-1.13 4.57-1.213v6.554zM4.842 12.1l5.734 3.275a4.683 4.683 0 0 0-.337 1.248H3.616A11.109 11.109 0 0 1 4.842 12.1zm5.397 5.71c.055.438.17.857.337 1.25l-5.734 3.275a11.112 11.112 0 0 1-1.226-4.524h6.623zm5.36 4.119a4.798 4.798 0 0 0 1.263-.334l3.31 5.674a11.413 11.413 0 0 1-4.572 1.214V21.93zM1.2 17.218c0-3.25 1.174-6.397 3.303-8.864a13.844 13.844 0 0 1 8.064-4.58l1.06 1.05c-1.76.19-3.412.739-4.879 1.573a.437.437 0 0 0-.1.058 12.624 12.624 0 0 0-4.524 4.476.52.52 0 0 0-.06.1A12.294 12.294 0 0 0 2.4 17.218a12.3 12.3 0 0 0 1.664 6.188.626.626 0 0 0 .024.046l.028.042a12.628 12.628 0 0 0 4.53 4.488.633.633 0 0 0 .054.034c.01.007.022.011.034.017A12.625 12.625 0 0 0 15 29.687c2.28 0 4.42-.602 6.267-1.654.01-.006.022-.01.033-.017a.649.649 0 0 0 .054-.034 12.628 12.628 0 0 0 4.53-4.488c.01-.014.02-.027.028-.042a.666.666 0 0 0 .024-.046 12.294 12.294 0 0 0 1.664-6.188c0-2.25-.606-4.363-1.664-6.187a.697.697 0 0 0-.06-.1 12.624 12.624 0 0 0-4.522-4.476.567.567 0 0 0-.054-.035l-.048-.024a12.601 12.601 0 0 0-4.879-1.572l1.06-1.05A13.843 13.843 0 0 1 25.5 8.355a13.573 13.573 0 0 1 3.301 8.863c0 7.53-6.19 13.657-13.8 13.657S1.2 24.748 1.2 17.218zm8.996 14.065c1.539.543 3.147.834 4.802.834 1.654 0 3.262-.29 4.802-.834h-9.604z"/><path class="st1" d="M17.063 16.098l-.987-.288-.581-.84a.602.602 0 0 0-.99 0l-.582.84-.987.288a.59.59 0 0 0-.306.932l.628.806-.028 1.018a.591.591 0 0 0 .247.497c.16.115.367.145.553.08l.97-.342.97.341a.604.604 0 0 0 .553-.079.592.592 0 0 0 .247-.497l-.028-1.018.627-.806a.59.59 0 0 0-.306-.932zM15.66 17.28a.59.59 0 0 0-.124.378l.01.363-.345-.122a.612.612 0 0 0-.402 0l-.346.122.01-.363a.59.59 0 0 0-.124-.378l-.224-.288.352-.102a.6.6 0 0 0 .325-.234l.208-.3.207.3a.6.6 0 0 0 .325.234l.352.102-.224.288z"/></svg>