<svg width="312" height="268" viewBox="0 0 312 268" xmlns="http://www.w3.org/2000/svg" xmlns:xlink="http://www.w3.org/1999/xlink"><svg width="30" height="27" fill="none" viewBox="-2 -2 30 27" id="admin" x="276" y="131" xmlns="http://www.w3.org/2000/svg"><g clip-path="url(#aaclip0)"><path d="M20.34 8.871a4.287 4.287 0 1 1-6.064 0h6.063z" fill="#000"/><path d="M11.773 8.871a4.287 4.287 0 1 1-6.064 0h6.064z" fill="#000"/><path d="M24.327 6.58a12.32 12.32 0 0 0-4.648-4.812 12.816 12.816 0 0 0-6.676-1.77c-2.336-.023-4.648.567-6.654 1.746C4.391 2.9 2.763 4.552 1.701 6.557.57 8.68-.02 11.062.026 13.445c0 1.745.283 3.491.85 5.142a12.519 12.519 0 0 0 2.406 4.223l9.744-.566v-3.822H10.55v1.911l-6.158.354c-1.321-1.817-1.982-4.482-1.982-7.1a11.3 11.3 0 0 1 1.392-5.591A10.263 10.263 0 0 1 7.6 4.08a10.572 10.572 0 0 1 5.402-1.416A10.657 10.657 0 0 1 18.43 4.08c1.604.943 2.926 2.288 3.799 3.94a11.599 11.599 0 0 1 1.368 5.59c0 3.114-.991 5.685-2.996 7.714l1.722 1.675a10.703 10.703 0 0 0 2.76-4.128c.637-1.723.944-3.539.92-5.379a14.125 14.125 0 0 0-1.675-6.912z" fill="#FBBB43"/><path d="M20.34 8.871a4.287 4.287 0 1 1-6.064 0h6.063z" fill="#FBBB43"/><path d="M11.773 8.871a4.287 4.287 0 1 1-6.064 0h6.064z" fill="#FBBB43"/><path d="M13.023 12.054c.024.825.284 1.65.803 2.359l4.223-5.52h-3.775a4.322 4.322 0 0 0-1.25 2.736v.425zM5.239 14.391l4.46-5.52H5.71a4.303 4.303 0 0 0-.472 5.52z" fill="#fff"/></g><defs><clipPath id="aaclip0"><path fill="#fff" d="M0 0h26v23H0z"/></clipPath></defs></svg><svg width="20" height="20" fill="none" viewBox="-2 -2 20 20" id="arrow_filter" x="220" y="170" xmlns="http://www.w3.org/2000/svg"><path d="M5 7l2.903 3L11 7" stroke="#fff" stroke-width="2" stroke-linecap="round" stroke-linejoin="round"/></svg><svg width="36" height="36" fill="none" viewBox="-2 -2 36 36" id="cart" x="112" y="52" xmlns="http://www.w3.org/2000/svg"><path fill-rule="evenodd" clip-rule="evenodd" d="M27.979 9.145C27.475 8.502 26.692 8 25.88 8H8.851L8.32 6.041A2.688 2.688 0 0 0 5.72 4H2.866A.871.871 0 0 0 2 4.867c0 .475.392.867.867.867h2.852c.42 0 .783.28.895.699l3.412 13.59a2.688 2.688 0 0 0 2.6 2.042h11.158c1.23 0 2.321-.839 2.6-2.042l2.098-8.612a2.563 2.563 0 0 0-.503-2.266zm-1.203 1.874l-2.097 8.613c-.1.377-.405.374-.77.369L23.784 20H12.626l-.124.001c-.366.005-.67.008-.77-.369L9.299 10H25.88c.28 0 .56.012.727.236.168.224.252.503.168.783zM13.214 23.084a3.024 3.024 0 0 0-3.008 3.008c0 1.649 1.359 3.008 3.008 3.008a3.024 3.024 0 0 0 3.008-3.008c0-1.65-1.359-3.008-3.008-3.008zm-1.047 3.008c0-.588.459-1.047 1.047-1.047.588 0 1.046.459 1.046 1.047a1.07 1.07 0 0 1-1.046 1.046 1.034 1.034 0 0 1-1.047-1.046zm10.667-3.008a3.024 3.024 0 0 0-3.009 3.008c0 1.649 1.36 3.008 3.009 3.008a3.024 3.024 0 0 0 3.008-3.008v-.002c-.03-1.646-1.358-3.006-3.008-3.006zm-1.047 3.008c0-.588.459-1.047 1.047-1.047.587 0 1.046.459 1.046 1.047a1.07 1.07 0 0 1-1.046 1.046 1.034 1.034 0 0 1-1.047-1.046z" fill="#fff"/></svg><svg width="36" height="36" fill="none" viewBox="-2 -2 36 36" id="cart-full" x="60" y="52" xmlns="http://www.w3.org/2000/svg"><path fill-rule="evenodd" clip-rule="evenodd" d="M20.341 8H8.851L8.32 6.041A2.688 2.688 0 0 0 5.72 4H2.866A.871.871 0 0 0 2 4.867c0 .475.392.867.867.867h2.852c.42 0 .783.28.895.699l3.412 13.59a2.688 2.688 0 0 0 2.6 2.042h11.158c1.23 0 2.321-.839 2.6-2.042l1.02-4.188a6.016 6.016 0 0 1-1.837.15l-.888 3.647c-.1.377-.405.374-.77.369L23.784 20H12.626l-.124.001c-.366.005-.67.008-.77-.369L9.299 10H20c0-.701.12-1.374.341-2zM10.206 26.092c0-1.65 1.359-3.008 3.008-3.008s3.008 1.359 3.008 3.008-1.359 3.008-3.008 3.008a3.024 3.024 0 0 1-3.008-3.008zm3.008-1.047c-.588 0-1.047.459-1.047 1.047 0 .588.459 1.046 1.047 1.046a1.07 1.07 0 0 0 1.046-1.046c0-.588-.458-1.047-1.046-1.047zm6.611 1.047c0-1.65 1.36-3.008 3.009-3.008 1.65 0 2.979 1.36 3.008 3.006v.002c0 1.649-1.36 3.008-3.008 3.008a3.024 3.024 0 0 1-3.009-3.008zm3.009-1.047c-.588 0-1.047.459-1.047 1.047 0 .588.459 1.046 1.047 1.046a1.07 1.07 0 0 0 1.046-1.046c0-.588-.459-1.047-1.046-1.047z" fill="#fff"/><circle cx="26" cy="10" r="4" fill="#FBBB43"/></svg><svg width="22" height="22" fill="none" viewBox="-2 -2 22 22" id="close-cookie" x="24" y="244" xmlns="http://www.w3.org/2000/svg"><path d="M1 1l16 16M1 17L17 1" stroke="#fff" stroke-width="2" stroke-linecap="round"/></svg><svg width="25" height="21" fill="none" viewBox="-2 -2 25 21" id="comments" x="240" y="180" xmlns="http://www.w3.org/2000/svg"><path d="M10.541 1C5.231 1 1 4.129 1 7.902c0 1.472.664 2.945 1.825 4.049L2.425 16l3.802-1.932c1.328.46 2.738.736 4.232.736 5.31 0 9.541-3.13 9.541-6.902C20 4.129 15.851 1 10.541 1z" stroke="#fff" stroke-linejoin="round" opacity=".7"/></svg><svg width="38" height="38" fill="none" viewBox="-2 -2 38 38" id="coop" x="164" xmlns="http://www.w3.org/2000/svg"><path d="M29 7.1H17l-3.8 3.8c-1 1-1 2.5 0 3.5s2.5 1 3.5 0l1.5-1.5c.4-.4 1-.4 1.4 0l6.6 6.6c.9.9.9 2.5 0 3.4l-5.5 5.5c-1 1-2.6 1-3.6 0l-.7-.7" stroke="#fff" stroke-width="2" stroke-linecap="round" stroke-linejoin="round"/><path d="M6.9 19.4c-.7 1.3-.6 3.1.6 4.2l4.6 4.6c1.1 1.1 2.8 1.1 3.9 0l.6-.6" stroke="#fff" stroke-width="2" stroke-linecap="round" stroke-linejoin="round"/><path d="M6.5 19.6c1.4-1.4 3.6-1.4 5 0l4.6 4.6c1 1 1 2.7 0 3.7M32 19.1h-6M7 19.1H2M5 7.1h12" stroke="#fff" stroke-width="2" stroke-linecap="round" stroke-linejoin="round"/><path d="M17 33c8.8 0 16-7.2 16-16S25.8 1 17 1 1 8.2 1 17s7.2 16 16 16z" stroke="#FBBB43" stroke-width="2" stroke-miterlimit="10"/></svg><svg width="17" height="16" fill="none" viewBox="-2 -2 17 16" id="dots" x="221" y="152" xmlns="http://www.w3.org/2000/svg"><circle cx="1.5" cy="6" r="1.5" fill="#fff"/><circle cx="6.5" cy="6" r="1.5" fill="#fff"/><circle cx="11.5" cy="6" r="1.5" fill="#fff"/></svg><svg width="44" height="44" fill="none" viewBox="-2 -2 44 44" id="down" y="88" xmlns="http://www.w3.org/2000/svg"><path d="M15 16.25L19.839 25 25 16.25" stroke="#fff" stroke-width="2" stroke-linecap="round" stroke-linejoin="round"/></svg><svg width="38" height="38" fill="none" viewBox="-2 -2 38 38" id="editor" x="164" y="38" xmlns="http://www.w3.org/2000/svg"><path stroke="#fff" stroke-width="2" stroke-linecap="round" stroke-linejoin="round" d="M19.163 8l4.738 2.903-6.533 10.662-4.738-2.904z"/><path d="M11.37 26.037l1.26-7.375 4.738 2.903-5.999 4.471z" stroke="#fff" stroke-width="2" stroke-linecap="round" stroke-linejoin="round"/><path d="M17 33c8.8 0 16-7.2 16-16S25.8 1 17 1 1 8.2 1 17s7.2 16 16 16z" stroke="#FBBB43" stroke-width="2" stroke-miterlimit="10"/></svg><svg width="36" height="36" fill="none" viewBox="-2 -2 36 36" id="favorite" x="76" y="170" xmlns="http://www.w3.org/2000/svg"><path fill-rule="evenodd" clip-rule="evenodd" d="M24.184 6.619c-2.757-1.292-6.242-.5-8.19 1.809l8.19-1.81zm-8.19 1.809c-1.945-2.309-5.417-3.1-8.191-1.81l-.004.002c-1.733.816-3.043 2.284-3.56 4.177-.516 1.893-.213 4.105 1.066 6.386 1.72 3.083 4.712 5.419 9.445 9.114l.627.49a1 1 0 0 0 1.231 0l.627-.49c4.732-3.694 7.724-6.03 9.444-9.112 1.29-2.28 1.6-4.493 1.084-6.388-.518-1.896-1.835-3.363-3.578-4.178m-.848 1.81c-2.322-1.087-5.381-.042-6.435 2.264a1 1 0 0 1-1.819 0c-1.053-2.305-4.09-3.352-6.435-2.263-1.237.583-2.127 1.602-2.48 2.894-.352 1.293-.193 2.966.882 4.882l.001.002c1.488 2.667 4.094 4.734 8.942 8.522 4.847-3.788 7.453-5.855 8.941-8.522l.003-.006c1.085-1.916 1.248-3.588.896-4.878s-1.246-2.31-2.495-2.894h-.002z" fill="#fff"/></svg><svg width="52" height="52" fill="none" viewBox="-2 -2 52 52" id="favorite-big" y="36" xmlns="http://www.w3.org/2000/svg"><path d="M36.847 9.83C32.4 7.76 26.554 9.69 24.488 14.177 22.422 9.69 16.611 7.761 12.13 9.83c-4.727 2.209-7.002 7.853-3.256 14.48 2.66 4.733 7.387 8.309 15.614 14.69 8.227-6.381 12.954-9.957 15.614-14.69 3.782-6.627 1.506-12.271-3.255-14.48z" stroke="#fff" stroke-width="2" stroke-miterlimit="10" stroke-linecap="round" stroke-linejoin="round"/></svg><svg width="52" height="52" fill="none" viewBox="-2 -2 52 52" id="favorite-big-added" x="60" xmlns="http://www.w3.org/2000/svg"><path d="M36.847 9.83C32.4 7.76 26.554 9.69 24.488 14.177 22.422 9.69 16.611 7.761 12.13 9.83c-4.727 2.209-7.002 7.853-3.256 14.48 2.66 4.733 7.387 8.309 15.614 14.69 8.227-6.381 12.954-9.957 15.614-14.69 3.782-6.627 1.506-12.271-3.255-14.48z" fill="#FBBB43" stroke="#FBBB43" stroke-width="2" stroke-miterlimit="10" stroke-linecap="round" stroke-linejoin="round"/></svg><svg width="52" height="52" fill="none" viewBox="-2 -2 52 52" id="favorite-big-hovered" x="112" xmlns="http://www.w3.org/2000/svg"><path d="M36.847 9.83C32.4 7.76 26.554 9.69 24.488 14.177 22.422 9.69 16.611 7.761 12.13 9.83c-4.727 2.209-7.002 7.853-3.256 14.48 2.66 4.733 7.387 8.309 15.614 14.69 8.227-6.381 12.954-9.957 15.614-14.69 3.782-6.627 1.506-12.271-3.255-14.48z" stroke="#FBBB43" stroke-width="2" stroke-miterlimit="10" stroke-linecap="round" stroke-linejoin="round"/></svg><svg width="36" height="36" fill="none" viewBox="-2 -2 36 36" id="favoriteadded" x="112" y="170" xmlns="http://www.w3.org/2000/svg"><path d="M23.336 8.431h.001c1.25.585 2.144 1.604 2.496 2.894.352 1.29.19 2.962-.896 4.878h0l-.003.006c-1.488 2.667-4.094 4.734-8.942 8.522-4.847-3.788-7.453-5.855-8.941-8.522l-.001-.002c-1.075-1.916-1.234-3.589-.881-4.882.352-1.292 1.242-2.31 2.48-2.894 2.345-1.09 5.38-.042 6.434 2.263a1 1 0 0 0 1.82 0c1.053-2.306 4.112-3.351 6.433-2.263z" fill="#FBBB43" stroke="#FBBB43" stroke-width="2" stroke-miterlimit="10" stroke-linecap="round" stroke-linejoin="round"/><path fill-rule="evenodd" clip-rule="evenodd" d="M24.184 6.619c-2.757-1.292-6.242-.5-8.19 1.809zm-8.19 1.809c-1.945-2.309-5.417-3.1-8.191-1.81l-.004.002c-1.733.816-3.043 2.284-3.56 4.177-.516 1.893-.213 4.105 1.066 6.386 1.72 3.083 4.712 5.419 9.445 9.114l.627.49a1 1 0 0 0 1.231 0l.627-.49c4.732-3.694 7.724-6.03 9.444-9.112 1.29-2.28 1.6-4.493 1.084-6.388-.518-1.896-1.835-3.363-3.578-4.178m-.848 1.81c-2.322-1.087-5.381-.042-6.435 2.264a1 1 0 0 1-1.819 0c-1.053-2.305-4.09-3.352-6.435-2.263-1.237.583-2.127 1.602-2.48 2.894-.352 1.293-.193 2.966.882 4.882l.001.002c1.488 2.667 4.094 4.734 8.942 8.522 4.847-3.788 7.453-5.855 8.941-8.522l.003-.006c1.085-1.916 1.248-3.588.896-4.878s-1.246-2.31-2.495-2.894h-.002z" fill="#FBBB43"/></svg><svg width="36" height="36" fill="none" viewBox="-2 -2 36 36" id="favoritehovered" x="148" y="170" xmlns="http://www.w3.org/2000/svg"><path fill-rule="evenodd" clip-rule="evenodd" d="M24.184 6.619c-2.757-1.292-6.242-.5-8.19 1.809l8.19-1.81zm-8.19 1.809c-1.945-2.309-5.417-3.1-8.191-1.81l-.004.002c-1.733.816-3.043 2.284-3.56 4.177-.516 1.893-.213 4.105 1.066 6.386 1.72 3.083 4.712 5.419 9.445 9.114l.627.49a1 1 0 0 0 1.231 0l.627-.49c4.732-3.694 7.724-6.03 9.444-9.112 1.29-2.28 1.6-4.493 1.084-6.388-.518-1.896-1.835-3.363-3.578-4.178m-.848 1.81c-2.322-1.087-5.381-.042-6.435 2.264a1 1 0 0 1-1.819 0c-1.053-2.305-4.09-3.352-6.435-2.263-1.237.583-2.127 1.602-2.48 2.894-.352 1.293-.193 2.966.882 4.882l.001.002c1.488 2.667 4.094 4.734 8.942 8.522 4.847-3.788 7.453-5.855 8.941-8.522l.003-.006c1.085-1.916 1.248-3.588.896-4.878s-1.246-2.31-2.495-2.894h-.002z" fill="#FBBB43"/></svg><svg width="36" height="36" fill="none" viewBox="-2 -2 36 36" id="fb" x="184" y="170" xmlns="http://www.w3.org/2000/svg"><path opacity=".99" d="M22 7.984l-2.175.001c-1.706 0-2.036.842-2.036 2.077v2.724h4.067l-.001 4.266h-4.066V28h-4.242V17.052H10v-4.266h3.547V9.64c0-3.651 2.147-5.64 5.283-5.64l3.17.005v3.98z" fill="#fff"/></svg><svg width="60" height="36" fill="none" viewBox="-2 -2 60 36" id="filter" xmlns="http://www.w3.org/2000/svg"><rect x="1" y="1" width="54" height="30" rx="9" stroke="#fff" stroke-width="2"/><path d="M19.5 12H14M41.5 12H26M28.5 21H14M41.5 21H35" stroke="#fff" stroke-width="2" stroke-linecap="round" stroke-linejoin="round"/><path clip-rule="evenodd" d="M22.743 15a3 3 0 1 0 0-6 3 3 0 0 0 0 6zM31.743 24a3 3 0 1 0 0-6 3 3 0 0 0 0 6z" stroke="#fff" stroke-width="2"/></svg><svg width="38" height="38" fill="none" viewBox="-2 -2 38 38" id="gamepad" x="164" y="76" xmlns="http://www.w3.org/2000/svg"><path d="M17 33c8.837 0 16-7.163 16-16S25.837 1 17 1 1 8.163 1 17s7.163 16 16 16z" stroke="#FBBB43" stroke-width="2" stroke-miterlimit="10"/><path d="M21.975 17.557a1.639 1.639 0 1 0 0-3.278 1.639 1.639 0 0 0 0 3.278z" stroke="#fff" stroke-linecap="round" stroke-linejoin="round"/><path d="M27.501 19l-.697-3.962a4.947 4.947 0 0 0-5.724-4.048c-1.134.104-3.122.26-4.24.26-1.12 0-3.237-.166-4.397-.265a4.948 4.948 0 0 0-5.682 4.053l-.926 5.203a2.296 2.296 0 0 0-.042.38 2.435 2.435 0 0 0 3.476 2.196l3.122-1.702 1.405-.754a7.665 7.665 0 0 1 3.028-.687 8.47 8.47 0 0 1 3.496.942l4.012 2.19a2.435 2.435 0 0 0 3.476-2.195A41.427 41.427 0 0 0 27.5 19z" stroke="#fff" stroke-width="2" stroke-linecap="round" stroke-linejoin="round"/><path d="M10 15.654h3.31M11.654 17.31V14" stroke="#fff" stroke-linecap="round" stroke-linejoin="round"/></svg><svg width="29" height="29" fill="none" viewBox="-2 -2 29 29" id="insta" x="276" y="158" xmlns="http://www.w3.org/2000/svg"><g opacity=".99"><g opacity=".99"><mask id="ata" maskUnits="userSpaceOnUse" x="0" y="0" width="25" height="25"><path opacity=".99" d="M0 0h24.296v24.294H0V0z" fill="#fff"/></mask><g mask="url(#ata)"><path opacity=".99" fill-rule="evenodd" clip-rule="evenodd" d="M12.148 0c-3.3 0-3.713.014-5.008.073-1.294.06-2.177.264-2.95.565a5.954 5.954 0 0 0-2.151 1.4A5.954 5.954 0 0 0 .638 4.192c-.3.772-.506 1.655-.565 2.949C.014 8.435 0 8.849 0 12.148c0 3.3.014 3.713.073 5.009.06 1.293.264 2.176.565 2.949.31.799.726 1.476 1.4 2.151a5.955 5.955 0 0 0 2.153 1.402c.772.3 1.655.505 2.949.564 1.295.06 1.709.073 5.008.073 3.3 0 3.713-.014 5.009-.073 1.293-.059 2.176-.264 2.949-.564a5.956 5.956 0 0 0 2.151-1.401 5.955 5.955 0 0 0 1.402-2.152c.3-.773.505-1.656.564-2.95.06-1.295.073-1.709.073-5.008 0-3.3-.014-3.713-.073-5.008-.059-1.294-.264-2.177-.564-2.95a5.955 5.955 0 0 0-1.401-2.151A5.955 5.955 0 0 0 20.105.638c-.773-.3-1.656-.506-2.95-.565C15.862.014 15.448 0 12.149 0zm0 2.189c3.244 0 3.628.012 4.91.07 1.183.055 1.827.253 2.255.419.567.22.972.484 1.397.909.425.425.688.83.908 1.397.167.428.365 1.07.419 2.255.058 1.281.07 1.665.07 4.91 0 3.243-.012 3.627-.07 4.908-.054 1.184-.252 1.828-.419 2.256-.22.567-.483.972-.908 1.397-.425.425-.83.688-1.397.908-.428.167-1.072.365-2.256.419-1.28.058-1.665.07-4.909.07-3.244 0-3.628-.012-4.909-.07-1.184-.054-1.827-.252-2.255-.419a3.764 3.764 0 0 1-1.397-.908 3.765 3.765 0 0 1-.909-1.397c-.166-.428-.364-1.072-.418-2.256-.059-1.28-.071-1.665-.071-4.909 0-3.244.012-3.628.07-4.909.055-1.184.253-1.827.419-2.255.22-.568.484-.972.909-1.397.425-.425.83-.689 1.397-.909.428-.166 1.07-.364 2.255-.418 1.281-.059 1.665-.071 4.91-.071z" fill="#fff"/></g></g><path opacity=".99" fill-rule="evenodd" clip-rule="evenodd" d="M12.148 16.197a4.05 4.05 0 1 1 0-8.099 4.05 4.05 0 0 1 0 8.1zm0-10.288a6.238 6.238 0 1 0 0 12.477 6.238 6.238 0 0 0 0-12.477zM20.09 5.664a1.458 1.458 0 1 1-2.915 0 1.458 1.458 0 0 1 2.916 0z" fill="#fff"/></g></svg><svg width="38" height="38" fill="none" viewBox="-2 -2 38 38" id="liderboards" y="132" xmlns="http://www.w3.org/2000/svg"><path d="M17 33c8.8 0 16-7.2 16-16S25.8 1 17 1 1 8.2 1 17c0 8.9 7.2 16 16 16z" stroke="#FBBB43" stroke-width="2" stroke-miterlimit="10"/><path d="M17 22.8l6.8 3.5-1.3-7.5 5.5-5.4-7.6-1.1L17 5.4l-3.4 6.9L6 13.4l5.5 5.4-1.3 7.5 6.8-3.5z" stroke="#fff" stroke-width="2" stroke-linecap="round" stroke-linejoin="round"/></svg><svg width="38" height="38" fill="none" viewBox="-2 -2 38 38" id="localcoop" x="38" y="132" xmlns="http://www.w3.org/2000/svg"><path d="M17 33c8.837 0 16-7.163 16-16S25.837 1 17 1 1 8.163 1 17s7.163 16 16 16z" stroke="#FBBB43" stroke-width="2" stroke-linecap="round" stroke-linejoin="round"/><path d="M27 21.636V11.364C27 10.61 26.235 10 25.291 10H8.71C7.765 10 7 10.61 7 11.364v10.271C7 22.39 7.765 23 8.709 23H25.29c.944 0 1.709-.61 1.709-1.364z" stroke="#fff" stroke-width="2" stroke-linecap="round" stroke-linejoin="round"/><path d="M17 10v13.5" stroke="#fff"/><path d="M19 26h-4" stroke="#fff" stroke-width="2" stroke-linecap="round"/></svg><svg width="22" height="29" fill="none" viewBox="-2 -2 22 29" id="locked" x="276" y="187" xmlns="http://www.w3.org/2000/svg"><g clip-path="url(#awclip0)"><path d="M14.1 11.3V6.6c0-2.8-2.3-5.1-5.1-5.1S3.9 3.8 3.9 6.6v4.5" stroke="#FBBB43" stroke-width="3" stroke-miterlimit="10"/><path fill-rule="evenodd" clip-rule="evenodd" d="M0 21.6c0 1.5 1.2 2.8 2.8 2.8h12.4c1.5 0 2.8-1.3 2.7-2.8v-8.3c0-1.5-1.2-2.8-2.8-2.8H2.8c-1.5 0-2.8 1.2-2.8 2.8v8.3zm9-7.3c1.1 0 2 .9 2 2 0 .7-.4 1.4-1 1.7v1.5c0 .6-.4 1-1 1s-1-.4-1-1V18c-.6-.3-1-1-1-1.7 0-1.1.9-2 2-2z" fill="#FBBB43"/></g><defs><clipPath id="awclip0"><path fill="#fff" d="M0 0h18v24.4H0z"/></clipPath></defs></svg><svg width="38" height="38" fill="none" viewBox="-2 -2 38 38" id="multiplayer" x="76" y="132" xmlns="http://www.w3.org/2000/svg"><path d="M10.195 20.652a5.5 5.5 0 1 0 0-11 5.5 5.5 0 0 0 0 11zM23.931 20.652a5.5 5.5 0 1 0 0-11 5.5 5.5 0 0 0 0 11zM2.242 23.187a13.746 13.746 0 0 1 21.396 8.372M16.957 22.438a13.743 13.743 0 0 1 14.527.671" stroke="#fff" stroke-width="2" stroke-miterlimit="10"/><path d="M17 33c8.837 0 16-7.163 16-16S25.837 1 17 1 1 8.163 1 17s7.163 16 16 16z" stroke="#FBBB43" stroke-width="2" stroke-miterlimit="10"/></svg><svg width="36" height="36" fill="none" viewBox="-2 -2 36 36" id="notification" x="240" xmlns="http://www.w3.org/2000/svg"><path fill-rule="evenodd" clip-rule="evenodd" d="M19.258 6.148a3.307 3.307 0 0 0-6.607 0 8.476 8.476 0 0 0-5.17 7.806v4.762A2.689 2.689 0 0 0 5 21.396a2.689 2.689 0 0 0 2.691 2.686h4.336a3.927 3.927 0 1 0 7.855 0h4.336a2.69 2.69 0 0 0 2.691-2.687 2.69 2.69 0 0 0-1.532-2.426 5.965 5.965 0 0 1-2.688 1.001c.335.487.896.805 1.532.805.341 0 .621.28.621.62 0 .341-.28.62-.624.62H7.69a.622.622 0 0 1-.624-.62c0-.341.279-.62.62-.62 1.027 0 1.86-.834 1.86-1.86v-4.96c0-2.807 1.82-5.26 4.45-6.104l.717-.23V6.304a1.24 1.24 0 0 1 2.48 0V7.62l.719.23c.549.176 1.063.423 1.532.728a5.977 5.977 0 0 1 2.55-.57 8.458 8.458 0 0 0-2.737-1.86zm-3.303 19.794a1.86 1.86 0 0 1-1.86-1.86h3.72a1.86 1.86 0 0 1-1.86 1.86z" fill="#fff"/><circle cx="22" cy="14.009" r="4" fill="#FBBB43"/></svg><svg width="36" height="36" fill="none" viewBox="-2 -2 36 36" id="notification-active" x="240" y="36" xmlns="http://www.w3.org/2000/svg"><path fill-rule="evenodd" clip-rule="evenodd" d="M19.258 6.148a3.307 3.307 0 0 0-6.607 0 8.476 8.476 0 0 0-5.17 7.806v4.762A2.689 2.689 0 0 0 5 21.396a2.689 2.689 0 0 0 2.691 2.686h4.336a3.927 3.927 0 1 0 7.855 0h4.336a2.69 2.69 0 0 0 2.691-2.687 2.69 2.69 0 0 0-1.532-2.426 5.965 5.965 0 0 1-2.688 1.001c.335.487.896.805 1.532.805.341 0 .621.28.621.62 0 .341-.28.62-.624.62H7.69a.622.622 0 0 1-.624-.62c0-.341.279-.62.62-.62 1.027 0 1.86-.834 1.86-1.86v-4.96c0-2.807 1.82-5.26 4.45-6.104l.717-.23V6.304a1.24 1.24 0 0 1 2.48 0V7.62l.719.23c.549.176 1.063.423 1.532.728a5.977 5.977 0 0 1 2.55-.57 8.458 8.458 0 0 0-2.737-1.86zm-3.303 19.794a1.86 1.86 0 0 1-1.86-1.86h3.72a1.86 1.86 0 0 1-1.86 1.86z" fill="#FBBB43"/><circle cx="22" cy="14.01" r="4" fill="#FBBB43"/></svg><svg width="36" height="36" fill="none" viewBox="-2 -2 36 36" id="notification_empty" x="240" y="72" xmlns="http://www.w3.org/2000/svg"><path d="M15.954 3a3.307 3.307 0 0 1 3.304 3.148 8.477 8.477 0 0 1 5.17 7.806v4.762a2.69 2.69 0 0 1 2.481 2.68 2.69 2.69 0 0 1-2.691 2.686H7.69A2.689 2.689 0 0 1 5 21.395a2.689 2.689 0 0 1 2.48-2.679v-4.762c0-3.451 2.081-6.5 5.171-7.806A3.307 3.307 0 0 1 15.954 3zm-1.958 4.851a6.408 6.408 0 0 0-4.449 6.103v4.96c0 1.027-.833 1.861-1.86 1.861a.622.622 0 0 0-.62.62c0 .342.278.62.624.62h16.527c.344 0 .624-.279.624-.62 0-.34-.28-.62-.62-.62a1.858 1.858 0 0 1-1.86-1.86v-4.96a6.41 6.41 0 0 0-4.45-6.104l-.717-.23V6.304a1.24 1.24 0 0 0-2.48 0V7.62l-.719.23zm-1.969 16.231h2.067a1.86 1.86 0 1 0 3.72 0h2.068a3.927 3.927 0 0 1-7.855 0z" fill="#fff"/></svg><svg width="36" height="36" fill="none" viewBox="-2 -2 36 36" id="notification_empty-active" x="240" y="108" xmlns="http://www.w3.org/2000/svg"><path d="M15.954 3a3.307 3.307 0 0 1 3.304 3.148 8.477 8.477 0 0 1 5.17 7.806v4.762a2.69 2.69 0 0 1 2.481 2.68 2.69 2.69 0 0 1-2.691 2.686H7.69A2.689 2.689 0 0 1 5 21.395a2.689 2.689 0 0 1 2.48-2.679v-4.762c0-3.451 2.081-6.5 5.171-7.806A3.307 3.307 0 0 1 15.954 3zm-1.958 4.851a6.408 6.408 0 0 0-4.449 6.103v4.96c0 1.027-.833 1.861-1.86 1.861a.622.622 0 0 0-.62.62c0 .342.278.62.624.62h16.527c.344 0 .624-.279.624-.62 0-.34-.28-.62-.62-.62a1.858 1.858 0 0 1-1.86-1.86v-4.96a6.41 6.41 0 0 0-4.45-6.104l-.717-.23V6.304a1.24 1.24 0 0 0-2.48 0V7.62l-.719.23zm-1.969 16.231h2.067a1.86 1.86 0 1 0 3.72 0h2.068a3.927 3.927 0 0 1-7.855 0z" fill="#FBBB43"/></svg><svg width="20" height="20" fill="none" viewBox="-2 -2 20 20" id="orange-arrow" x="97" y="208" xmlns="http://www.w3.org/2000/svg"><path d="M3 11l4.839-6L13 11" stroke="#FBBB43" stroke-width="2" stroke-linecap="round" stroke-linejoin="round"/></svg><svg width="44" height="44" fill="none" viewBox="-2 -2 44 44" id="play" x="44" y="88" xmlns="http://www.w3.org/2000/svg"><path d="M39 20c0 10.493-8.507 19-19 19S1 30.493 1 20 9.507 1 20 1s19 8.507 19 19z" stroke="#FBBB43" stroke-width="2" stroke-miterlimit="10"/><path d="M27.369 20.031l-10.527-6.347v12.632L27.37 20.03z" stroke="#fff" stroke-width="2" stroke-miterlimit="10" stroke-linecap="round" stroke-linejoin="round"/></svg><svg width="38" height="38" fill="none" viewBox="-2 -2 38 38" id="ptw" x="114" y="132" xmlns="http://www.w3.org/2000/svg"><path d="M17 33c8.8 0 16-7.2 16-16S25.8 1 17 1 1 8.2 1 17s7.2 16 16 16z" stroke="#FBBB43" stroke-width="2" stroke-miterlimit="10"/><path d="M23 26H11c-.6 0-1-.4-1-1V11h14v14c0 .6-.4 1-1 1z" stroke="#fff" stroke-width="2" stroke-linecap="round" stroke-linejoin="round"/><path d="M20 14V9c0-1.7-1.3-3-3-3s-3 1.3-3 3v5" stroke="#fff" stroke-width="2" stroke-linecap="round" stroke-linejoin="round"/></svg><svg width="13.34" height="16" fill="none" viewBox="-2 -2 13.34 16" id="quote-close" x="298" y="187" xmlns="http://www.w3.org/2000/svg"><path d="M0 12l3.408-4.536L0 2.904h1.584l3.48 4.56L1.584 12zm4.272 0L7.68 7.464l-3.408-4.56h1.584l3.48 4.56L5.856 12z" fill="#fbbb43"/></svg><svg width="13.34" height="16" fill="none" viewBox="-2 -2 13.34 16" id="quote-open" x="148" y="52" xmlns="http://www.w3.org/2000/svg"><path d="M0 7.464l3.48-4.56h1.584l-3.408 4.56L5.064 12H3.48zm4.272 0l3.48-4.56h1.584l-3.408 4.56L9.336 12H7.752z" fill="#fbbb43"/></svg><svg width="17" height="11" fill="none" viewBox="-2 -2 17 11" id="responsearrow" x="132" y="113" xmlns="http://www.w3.org/2000/svg"><path d="M9.5 6l3-2.42L9.5 1M12 3.5H1" stroke="#fff" stroke-linecap="round" stroke-linejoin="round"/></svg><svg width="24" height="25" fill="none" viewBox="-2 -2 24 25" id="search" x="132" y="88" xmlns="http://www.w3.org/2000/svg"><path d="M2.129 19.643l4.467-4.483a8.355 8.355 0 0 0 4.995 1.642c4.637 0 8.409-3.768 8.409-8.4 0-4.63-3.772-8.398-8.409-8.398-4.636 0-8.409 3.768-8.409 8.399 0 1.873.611 3.578 1.644 4.989L.358 17.854a1.223 1.223 0 0 0-.358.884c0 .316.126.653.358.884a1.242 1.242 0 0 0 1.77.021zM11.59 2.51c3.246 0 5.901 2.652 5.901 5.894s-2.655 5.894-5.9 5.894c-3.246 0-5.902-2.652-5.902-5.894a5.901 5.901 0 0 1 5.901-5.894z" fill="#fff" fill-opacity=".5"/></svg><svg width="26" height="26" fill="none" viewBox="-2 -2 26 26" id="search2" x="276" y="216" xmlns="http://www.w3.org/2000/svg"><path d="M2.341 21.603l4.915-4.931a9.19 9.19 0 0 0 5.494 1.805c5.1 0 9.25-4.144 9.25-9.238C22 4.145 17.85 0 12.75 0S3.5 4.145 3.5 9.239c0 2.06.673 3.936 1.809 5.487l-4.915 4.91a1.345 1.345 0 0 0-.394.972c0 .347.14.718.394.972a1.366 1.366 0 0 0 1.947.023zm10.41-18.848c3.57 0 6.49 2.918 6.49 6.484s-2.92 6.483-6.49 6.483c-3.57 0-6.492-2.917-6.492-6.483a6.491 6.491 0 0 1 6.491-6.484z" fill="#fff"/></svg><svg width="24" height="24" fill="none" viewBox="-2 -2 24 24" id="send" y="244" xmlns="http://www.w3.org/2000/svg"><path d="M19.647 9.42L.89.063c-.589-.281-1.148.438-.765.97l5.8 8.575a.694.694 0 0 1 0 .75l-5.8 8.607c-.383.563.176 1.252.765.97l18.756-9.357c.47-.22.47-.939 0-1.158z" fill="#fff"/></svg><svg width="38" height="38" fill="none" viewBox="-2 -2 38 38" id="singleplayer" x="152" y="132" xmlns="http://www.w3.org/2000/svg"><path d="M17 20.652a5.5 5.5 0 1 0 0-11 5.5 5.5 0 0 0 0 11zM5.037 27.62a13.404 13.404 0 0 1 23.664.291" stroke="#fff" stroke-width="2" stroke-miterlimit="10"/><path d="M17 33c8.837 0 16-7.163 16-16S25.837 1 17 1 1 8.163 1 17s7.163 16 16 16z" stroke="#FBBB43" stroke-width="2" stroke-miterlimit="10"/></svg><svg width="18" height="18" fill="none" viewBox="-2 -2 18 18" id="small-star-fill" x="164" y="114" xmlns="http://www.w3.org/2000/svg"><path d="M7.297 1.194L8.883 4.56c.05.103.149.155.248.207l3.568.517c.297.052.396.415.198.622l-2.577 2.64c-.099.104-.099.207-.099.31l.595 3.729c.05.31-.248.517-.496.362l-3.171-1.76a.304.304 0 0 0-.298 0l-3.171 1.76c-.248.155-.545-.103-.496-.362l.595-3.728c0-.104 0-.207-.1-.31L1.104 5.905c-.198-.207-.099-.57.198-.622l3.568-.517c.1 0 .198-.104.248-.207l1.586-3.366c.099-.259.495-.259.594 0z" fill="#FBBB43" stroke="#FBBB43" stroke-width="2" stroke-miterlimit="10"/></svg><svg width="18" height="18" fill="none" viewBox="-2 -2 18 18" id="small-star-notfill" x="182" y="114" xmlns="http://www.w3.org/2000/svg"><path opacity=".3" d="M7.297 1.194L8.883 4.56c.05.103.149.155.248.207l3.568.517c.297.052.396.415.198.622l-2.577 2.64c-.099.104-.099.207-.099.31l.595 3.729c.05.31-.248.517-.496.362l-3.171-1.76a.304.304 0 0 0-.298 0l-3.171 1.76c-.248.155-.545-.103-.496-.362l.595-3.728c0-.104 0-.207-.1-.31L1.104 5.905c-.198-.207-.099-.57.198-.622l3.568-.517c.1 0 .198-.104.248-.207l1.586-3.366c.099-.259.495-.259.594 0z" stroke="#FBBB43" stroke-width="2" stroke-miterlimit="10"/></svg><svg width="20" height="20" fill="none" viewBox="-2 -2 20 20" id="sort" x="117" y="208" xmlns="http://www.w3.org/2000/svg"><rect y="3" width="16" height="3" rx="1.5" fill="#000"/><rect x="6" y="8" width="10" height="3" rx="1.5" fill="#000"/><rect x="12" y="13" width="4" height="3" rx="1.5" fill="#000"/></svg><svg width="20" height="20" fill="none" viewBox="-2 -2 20 20" id="sort-white" x="137" y="208" xmlns="http://www.w3.org/2000/svg"><g fill="#fff"><rect y="3" width="16" height="3" rx="1.5"/><rect x="6" y="8" width="10" height="3" rx="1.5"/><rect x="12" y="13" width="4" height="3" rx="1.5"/></g></svg><svg width="38" height="38" fill="none" viewBox="-2 -2 38 38" id="statistic" x="202" xmlns="http://www.w3.org/2000/svg"><path d="M10.8 17.467H7V24h3.8v-6.533zM18.4 13.733h-3.8V24h3.8V13.733zM26 10h-3.8v14H26V10z" stroke="#fff" stroke-width="2" stroke-linecap="round" stroke-linejoin="round"/><path d="M17 33c8.8 0 16-7.2 16-16S25.8 1 17 1 1 8.2 1 17s7.2 16 16 16z" stroke="#FBBB43" stroke-width="2" stroke-miterlimit="10"/></svg><svg width="38" height="38" fill="none" viewBox="-2 -2 38 38" id="steam" x="202" y="38" xmlns="http://www.w3.org/2000/svg"><path d="M22.594 18.759a5.469 5.469 0 1 0 0-10.937 5.469 5.469 0 0 0 0 10.937zM10.689 25.793a3.398 3.398 0 1 0 0-6.796 3.398 3.398 0 0 0 0 6.796zM18.697 17.125l-4.787 3.617M7.29 20.962l-5.856-3.427" stroke="#fff" stroke-width="2" stroke-linecap="round" stroke-linejoin="round"/><path d="M17 33c8.837 0 16-7.163 16-16S25.837 1 17 1 1 8.163 1 17s7.163 16 16 16z" stroke="#FBBB43" stroke-width="2" stroke-linecap="round" stroke-linejoin="round"/></svg><svg width="38" height="38" fill="none" viewBox="-2 -2 38 38" id="steamcards" x="202" y="76" xmlns="http://www.w3.org/2000/svg"><path d="M17 33c8.837 0 16-7.163 16-16S25.837 1 17 1 1 8.163 1 17s7.163 16 16 16z" stroke="#FBBB43" stroke-width="2" stroke-linecap="round" stroke-linejoin="round"/><path d="M23.14 7.015H10.292c-.943 0-1.707.764-1.707 1.706v16.562c0 .943.764 1.707 1.707 1.707h12.846c.943 0 1.707-.764 1.707-1.707V8.721c0-.942-.764-1.706-1.707-1.706z" stroke="#fff" stroke-width="2" stroke-linecap="round" stroke-linejoin="round"/><path d="M24.847 14.383v5.9a1.462 1.462 0 0 1-1.462 1.463H10.049a1.462 1.462 0 0 1-1.457-1.462v-6.161" stroke="#fff" stroke-width="2" stroke-linecap="round" stroke-linejoin="round"/></svg><svg width="38" height="38" fill="none" viewBox="-2 -2 38 38" id="steamcloud" x="202" y="114" xmlns="http://www.w3.org/2000/svg"><path d="M17 33c8.837 0 16-7.163 16-16S25.837 1 17 1 1 8.163 1 17s7.163 16 16 16z" stroke="#FBBB43" stroke-width="2" stroke-miterlimit="10"/><path d="M25.335 14.877a4.08 4.08 0 0 0-1.727.39c.092-.367.139-.744.14-1.123a4.787 4.787 0 0 0-9.548-.453 5.546 5.546 0 1 0-4.162 9.22l15.292.063a4.048 4.048 0 1 0 0-8.097h.006z" stroke="#fff" stroke-width="2" stroke-linecap="round" stroke-linejoin="round"/></svg><svg width="36" height="36" fill="none" viewBox="-2 -2 36 36" id="twitch" x="240" y="144" xmlns="http://www.w3.org/2000/svg"><path fill-rule="evenodd" clip-rule="evenodd" d="M24.047 16.734l-3.419 3.43h-5.371l-2.93 2.938v-2.939H7.93V5.96h16.116v10.775zM5.977 4L5 7.919V25.55h4.396V28h2.441l2.443-2.45h3.906L26 17.715V4H5.977z" fill="#fff"/><path fill-rule="evenodd" clip-rule="evenodd" d="M13.303 15.755h1.953V9.877h-1.953v5.878zm5.371 0h1.954V9.877h-1.954v5.878z" fill="#fff"/></svg><svg width="36" height="36" fill="none" viewBox="-2 -2 36 36" id="twitter" y="208" xmlns="http://www.w3.org/2000/svg"><path d="M11.547 26c9.057 0 14.01-7.695 14.01-14.369 0-.218 0-.436-.014-.652.964-.715 1.796-1.6 2.457-2.614a9.638 9.638 0 0 1-2.828.794 5.046 5.046 0 0 0 2.165-2.793 9.72 9.72 0 0 1-3.127 1.226 4.892 4.892 0 0 0-2.794-1.526 4.822 4.822 0 0 0-3.122.532 5.005 5.005 0 0 0-2.163 2.37 5.174 5.174 0 0 0-.312 3.23 13.708 13.708 0 0 1-5.622-1.532A14.052 14.052 0 0 1 5.67 6.921a5.166 5.166 0 0 0-.539 3.68 5.056 5.056 0 0 0 2.064 3.062 4.794 4.794 0 0 1-2.235-.633v.065c0 1.165.394 2.295 1.114 3.198a4.906 4.906 0 0 0 2.836 1.752 4.798 4.798 0 0 1-2.223.086 5.054 5.054 0 0 0 1.752 2.51 4.85 4.85 0 0 0 2.848.997A9.725 9.725 0 0 1 4 23.732a13.689 13.689 0 0 0 7.547 2.264" fill="#fff"/></svg><svg width="44" height="44" fill="none" viewBox="-2 -2 44 44" id="up" x="88" y="88" xmlns="http://www.w3.org/2000/svg"><path d="M25 23.75L20.161 15 15 23.75" stroke="#fff" stroke-width="2" stroke-linecap="round" stroke-linejoin="round"/></svg><svg width="19" height="17" fill="none" viewBox="-2 -2 19 17" id="up-medium" x="202" y="152" xmlns="http://www.w3.org/2000/svg"><path d="M13.5 11.5L7.694 1 1.5 11.5" stroke="#fff" stroke-width="2" stroke-linecap="round" stroke-linejoin="round"/></svg><svg width="36" height="35" fill="none" viewBox="-2 -2 36 35" id="user" x="36" y="208" xmlns="http://www.w3.org/2000/svg"><path fill-rule="evenodd" clip-rule="evenodd" d="M16.5 6C10.701 6 6 10.701 6 16.5c0 2.166.656 4.178 1.78 5.85a11.119 11.119 0 0 1 5.219-3.67 4.97 4.97 0 1 1 6.99.013c2.088.698 3.892 2 5.203 3.7A10.451 10.451 0 0 0 27 16.5C27 10.701 22.299 6 16.5 6zm7.373 17.976a8.983 8.983 0 0 0-7.41-3.854c-3.03 0-5.724 1.503-7.375 3.815A10.467 10.467 0 0 0 16.5 27c2.873 0 5.477-1.154 7.373-3.024zM4 16.5C4 9.596 9.596 4 16.5 4S29 9.596 29 16.5 23.404 29 16.5 29 4 23.404 4 16.5zm12.5-4.32a2.97 2.97 0 1 0 0 5.942 2.97 2.97 0 0 0 0-5.941z" fill="#fff"/></svg><svg width="25" height="21" fill="none" viewBox="-2 -2 25 21" id="views" x="72" y="208" xmlns="http://www.w3.org/2000/svg"><g opacity=".7" stroke="#fff" stroke-miterlimit="10"><path d="M10.5 12.974c5.247 0 9.5-2.009 9.5-4.487S15.747 4 10.5 4 1 6.009 1 8.487s4.253 4.487 9.5 4.487z"/><path d="M10.5 12.881a4.394 4.394 0 1 0 0-8.788 4.394 4.394 0 0 0 0 8.788z"/></g></svg><svg width="36" height="36" fill="none" viewBox="-2 -2 36 36" id="vk" x="276" xmlns="http://www.w3.org/2000/svg"><path d="M26.819 18.444c.994 1.03 2.045 1.999 2.938 3.135.395.502.768 1.022 1.051 1.606.405.833.04 1.747-.664 1.797l-4.37-.001c-1.128.099-2.026-.384-2.783-1.202-.604-.652-1.165-1.348-1.747-2.022-.238-.277-.488-.537-.787-.742-.596-.411-1.113-.285-1.454.374-.348.672-.428 1.416-.46 2.163-.048 1.092-.359 1.378-1.393 1.43-2.209.109-4.305-.247-6.253-1.427-1.718-1.042-3.048-2.512-4.207-4.176-2.257-3.244-3.985-6.805-5.539-10.468-.35-.825-.093-1.266.765-1.284a114.67 114.67 0 0 1 4.278-.001c.58.01.965.362 1.188.942.77 2.01 1.715 3.924 2.899 5.697.315.473.637.944 1.096 1.277.506.369.892.247 1.13-.352.153-.38.22-.788.252-1.196.114-1.398.127-2.795-.069-4.187-.122-.872-.584-1.434-1.403-1.599-.418-.084-.356-.247-.154-.5.353-.437.683-.707 1.342-.707L17.412 7c.778.162.952.532 1.058 1.363l.004 5.817c-.009.321.152 1.275.697 1.485.437.153.724-.218.985-.511 1.184-1.332 2.028-2.904 2.783-4.532.334-.717.621-1.46.9-2.204.208-.55.531-.82 1.117-.811l4.753.006c.14 0 .283.001.422.026.8.146 1.02.511.772 1.34-.39 1.302-1.148 2.386-1.889 3.474-.794 1.164-1.64 2.287-2.427 3.456-.723 1.07-.666 1.607.232 2.535z" fill="#fff"/></svg><svg width="38" height="38" fill="none" viewBox="-2 -2 38 38" id="vr" y="170" xmlns="http://www.w3.org/2000/svg"><path d="M12.928 21.342l2.352-7.49s.14-.35.14-.602c0-.448-.392-.84-.91-.84-.532 0-.798.28-.91.672-.574 1.988-1.134 3.99-1.694 5.978h-.112L10.1 13.082c-.112-.392-.392-.672-.91-.672-.532 0-.91.392-.91.84 0 .252.14.602.14.602l2.338 7.49c.07.238.392.798 1.092.798.7 0 1.008-.56 1.078-.798zm7.837-2.912l1.54 3.122s.21.448.812.448c.518 0 .91-.378.91-.84 0-.378-.28-.84-.28-.84l-1.302-2.45s1.372-.63 1.372-2.45c0-1.778-1.232-3.01-3.57-3.01h-2.03c-.532 0-.91.378-.91.84v7.91c0 .462.378.84.91.84s.91-.378.91-.84v-2.73h1.638zm-1.638-1.68v-2.66h1.12c1.148 0 1.68.532 1.68 1.33 0 .812-.532 1.33-1.68 1.33h-1.12z" fill="#fff"/><path d="M17 33c8.8 0 16-7.2 16-16S25.8 1 17 1 1 8.2 1 17s7.2 16 16 16z" stroke="#FBBB43" stroke-width="2" stroke-miterlimit="10"/></svg><svg width="38" height="38" fill="none" viewBox="-2 -2 38 38" id="workshop" x="38" y="170" xmlns="http://www.w3.org/2000/svg"><path d="M17 33c8.8 0 16-7.2 16-16S25.8 1 17 1 1 8.2 1 17c0 8.9 7.2 16 16 16z" stroke="#FBBB43" stroke-width="2" stroke-miterlimit="10"/><path d="M12 16.1c-2.8 0-5 2.2-5 5s2.2 5 5 5 5-2.2 5-5-2.2-5-5-5zM24 9.1c-1.7 0-3 1.3-3 3s1.3 3 3 3 3-1.3 3-3-1.3-3-3-3zM16 16.3l4.8-3.6M18 19.3l4.8-3.6" stroke="#fff" stroke-width="2" stroke-linecap="round" stroke-linejoin="round"/><path d="M12 19.4c-.9 0-1.7.8-1.7 1.7 0 .9.8 1.7 1.7 1.7.9 0 1.7-.8 1.7-1.7 0-.9-.7-1.7-1.7-1.7z" stroke="#fff" stroke-linecap="round" stroke-linejoin="round"/></svg><svg width="36" height="36" fill="none" viewBox="-2 -2 36 36" id="www" x="276" y="36" xmlns="http://www.w3.org/2000/svg"><g clip-path="url(#cdclip0)" fill="#fff"><path d="M7.698 16.37h7.37v-4.282a26.9 26.9 0 0 1-6.25-.865 12.28 12.28 0 0 0-1.12 5.147zM15.93 12.088v4.282h7.372a12.28 12.28 0 0 0-1.121-5.147 22.961 22.961 0 0 1-6.25.865zM15.93 4.735v6.488a26.61 26.61 0 0 0 5.906-.778 13.04 13.04 0 0 0-5.905-5.71zM6.836 17.235H3c.13 2.38.948 4.585 2.241 6.445.949-.433 1.94-.822 2.975-1.125a14.698 14.698 0 0 1-1.38-5.32zM24.164 16.37H28c-.043-2.422-.732-4.671-1.94-6.574-.948.476-1.982.865-3.016 1.168.69 1.686 1.12 3.503 1.12 5.406zM24.164 17.235a14.036 14.036 0 0 1-1.336 5.32c1.034.303 2.026.692 2.93 1.125 1.294-1.86 2.07-4.023 2.242-6.445h-3.836zM15.07 4.735c-2.587 1.255-4.613 3.244-5.863 5.71 1.853.476 3.836.778 5.862.778V4.735zM6.836 16.37c0-1.903.431-3.72 1.12-5.406A31.224 31.224 0 0 1 4.94 9.796C3.733 11.699 3.043 13.948 3 16.37h3.836zM15.069 21.517v-4.282H7.74c.086 1.817.56 3.504 1.336 5.06a27.046 27.046 0 0 1 5.992-.778zM8.603 23.334c-.991.303-1.94.649-2.845 1.038C7.87 27.01 11.06 28.74 14.638 29a13.93 13.93 0 0 1-6.035-5.666z"/><path d="M22.655 10.185a21.065 21.065 0 0 0 2.888-1.124C23.431 6.206 20.155 4.26 16.363 4a13.86 13.86 0 0 1 6.292 6.185zM22.396 23.334A13.93 13.93 0 0 1 16.363 29a12.42 12.42 0 0 0 8.836-4.628c-.905-.39-1.81-.735-2.802-1.038zM8.345 10.185A13.86 13.86 0 0 1 14.638 4a12.447 12.447 0 0 0-9.224 5.104 21.49 21.49 0 0 0 2.93 1.081zM23.302 17.235H15.93v4.282c2.069.044 4.095.303 6.034.822a14.403 14.403 0 0 0 1.337-5.104zM15.069 28.265v-5.883c-1.94.044-3.793.26-5.604.736 1.293 2.206 3.233 3.979 5.604 5.147zM21.534 23.118a26.144 26.144 0 0 0-5.603-.736v5.883a12.937 12.937 0 0 0 5.603-5.147z"/></g><defs><clipPath id="cdclip0"><path fill="#fff" transform="translate(3 4)" d="M0 0h25v25H0z"/></clipPath></defs></svg><svg width="36" height="36" fill="none" viewBox="-2 -2 36 36" id="youtube" x="276" y="72" xmlns="http://www.w3.org/2000/svg"><path opacity=".99" fill-rule="evenodd" clip-rule="evenodd" d="M16.33 7c1.619.007 8.69.067 10.626.58 1.199.313 2.145 1.23 2.468 2.392.52 1.84.571 5.41.576 6.33v.346c-.006.732-.057 4.49-.576 6.402-.323 1.162-1.27 2.079-2.468 2.392-1.937.494-9.007.551-10.625.558h-.662c-1.614-.007-8.669-.067-10.626-.58-1.2-.313-2.145-1.23-2.468-2.392-.5-1.822-.566-5.389-.575-6.308v-.439c.009-.915.076-4.468.575-6.309.323-1.162 1.292-2.101 2.468-2.414C6.98 7.064 14.05 7.007 15.668 7h.663zm-3.121 5.431v8.138l7.288-4.069-7.288-4.069z" fill="#fff"/></svg><svg width="33" height="23" fill="none" viewBox="-2 -2 33 23" id="yt" x="276" y="108" xmlns="http://www.w3.org/2000/svg"><path opacity=".99" fill-rule="evenodd" clip-rule="evenodd" d="M14.653 0c1.621.008 8.704.067 10.644.574 1.201.31 2.149 1.215 2.472 2.363.52 1.819.573 5.346.578 6.254v.342c-.006.723-.058 4.436-.578 6.325-.323 1.148-1.27 2.054-2.472 2.363-1.94.488-9.023.545-10.644.551h-.663c-1.617-.007-8.684-.066-10.644-.573-1.202-.31-2.149-1.215-2.472-2.363-.501-1.8-.568-5.324-.577-6.232V9.17c.01-.904.076-4.414.577-6.233C1.197 1.79 2.168.861 3.346.552 5.286.064 12.368.007 13.989.001h.664zm-3.127 5.367v8.04l7.301-4.02-7.301-4.02z" fill="#fff"/></svg></svg>